<svg width="119" height="118" viewBox="0 0 119 118" fill="none" xmlns="http://www.w3.org/2000/svg">
<rect x="0.598145" width="118" height="118" rx="59" fill="white"/>
<path d="M16.7113 50.2949C16.438 51.1567 16.1017 52.3183 15.8838 53.2C16.0351 52.5891 16.3162 52.0181 16.7079 51.5256C17.0996 51.0331 17.5927 50.6307 18.1538 50.3458C19.2644 48.9318 20.6832 47.7899 22.302 47.0074C23.9209 46.2248 25.697 45.8222 27.495 45.8301V45.7969C20.7856 43.8831 18.7036 46.0746 18.1217 47.1045C17.5709 48.1298 17.1001 49.1961 16.7135 50.2939" fill="#007AFF"/>
<path d="M23.6655 40.058L22.6787 40.9983C23.8137 40.0735 25.6855 40.2881 28.5673 41.6765C29.1927 40.564 29.9856 39.5543 30.9181 38.6829C29.5518 37.694 28.1668 36.8322 27.2873 37.2371C26.0123 38.0871 24.8014 39.0296 23.6644 40.0569" fill="#007AFF"/>
<path d="M37.4536 32.3478C36.4292 32.7217 35.0652 33.2206 34.0508 33.6321C34.5816 34.1912 35.0587 34.799 35.4757 35.4475C37.0049 34.6256 38.5952 33.9229 40.2325 33.3456C39.9571 32.2084 39.8896 31.6409 40.2403 31.4971C39.4028 31.7504 38.2811 32.0634 37.4514 32.3511" fill="#007AFF"/>
<path d="M54.0906 29.2401C52.5319 29.3662 50.4555 29.5587 48.9012 29.7401C48.0892 29.9404 47.7308 30.228 47.3281 31.4438C49.4476 31.0441 51.5873 30.7605 53.7377 30.5942C54.0565 30.1505 54.4744 29.7874 54.9581 29.5337C55.4419 29.2801 55.9782 29.1428 56.5244 29.1328L54.0906 29.2434" fill="#007AFF"/>
<path d="M71.4054 30.1679C69.9474 29.9467 68.0025 29.6723 66.5379 29.5042C65.0749 29.3314 63.5979 29.6796 62.3662 30.4876C64.6001 30.6022 66.8264 30.8345 69.0358 31.1834C70.6871 30.4771 72.5211 30.3178 74.2695 30.7288C73.4099 30.5595 72.2694 30.3117 71.4054 30.1757" fill="#007AFF"/>
<path d="M87.027 35.0734C85.9451 34.5756 84.5015 33.9229 83.4041 33.4704C81.242 32.5811 78.8566 32.3877 76.5796 32.9173C78.3608 33.4637 80.1034 34.129 81.7956 34.9085C84.7791 34.5475 87.7946 35.2477 90.3137 36.8865C89.3336 36.3256 88.0293 35.5668 87.0215 35.0734" fill="#007AFF"/>
<path d="M102.531 51.1964C101.8 49.1214 100.793 47.1542 99.5377 45.3476L98.7634 44.2912C95.2853 40.0609 91.7796 38.1869 87.0371 38.0254C88.1504 38.8658 89.1538 39.8425 90.024 40.9326C97.906 42.0389 103.331 48.9197 103.844 58.46C103.779 55.9861 103.335 53.5367 102.527 51.1975" fill="#007AFF"/>
<path d="M91.2657 80.4263C92.772 79.4575 94.1998 78.3719 95.5359 77.1794C96.0392 76.6938 96.714 76.0522 97.1953 75.5433C107.026 64.233 102.559 47.9114 92.0036 44.9521C92.1168 45.4665 92.1779 45.9909 92.1861 46.5175V46.7985C92.1755 47.3174 92.1136 47.8339 92.0014 48.3406C103.294 53.4006 102.184 73.5941 90.2026 81.0778L91.2624 80.4274" fill="#007AFF"/>
<path d="M76.5002 86.3739C77.9704 85.9967 79.923 85.4557 81.381 85.0132C95.8353 79.6192 98.1407 57.5937 90.0274 52.2959C89.1559 53.3582 88.1522 54.3047 87.0406 55.1124C93.8993 62.6272 86.8702 83.8572 73.9868 86.906L76.498 86.375" fill="#007AFF"/>
<path d="M59.6792 88.1319C61.0421 88.1197 62.8607 88.1009 64.2236 88.0478C76.2298 86.8166 84.7744 64.9272 81.8008 58.0762C80.1067 58.8093 78.3639 59.4244 76.5849 59.917C76.5572 68.6729 64.6861 88.237 56.1724 88.0157C57.2244 88.0534 58.6271 88.1263 59.678 88.1263" fill="#007AFF"/>
<path d="M42.2659 85.8758C43.6067 86.1966 45.3999 86.607 46.7484 86.8803C51.7575 87.2464 64.3721 70.3617 69.0305 61.4365C66.8118 61.721 64.5795 61.8883 62.3432 61.9377C58.7069 65.4423 49.1114 76.4649 47.2252 78.642C42.3688 84.2397 40.5634 85.3016 39.9062 85.2065L42.2659 85.8769" fill="#007AFF"/>
<path d="M27.6314 79.5538C29.085 80.5218 30.6001 81.3942 32.167 82.1656L32.2953 82.2287C32.5641 80.8049 44.5027 66.6449 53.72 61.5783C51.5708 61.349 49.4356 61.0037 47.3237 60.5439C36.3121 64.7344 25.0715 77.5559 27.0063 79.129L27.6258 79.5538" fill="#007AFF"/>
<path d="M19.6667 71.8936C20.1877 72.5894 20.8913 73.5142 21.4455 74.1747C18.9653 70.4223 29.4227 60.705 40.2429 58.4394C38.6034 57.8128 37.0133 57.064 35.486 56.1992C25.5298 57.2734 16.0525 64.2748 18.0017 69.1246C18.4796 69.9742 19.1191 71.1048 19.67 71.8903" fill="#007AFF"/>
<path d="M15.3506 58.1503V58.6238C15.3937 59.4458 15.4612 60.5398 15.553 61.3552C15.2853 56.0252 23.4361 52.5815 30.9199 52.826C29.9866 51.9273 29.1934 50.8936 28.5669 49.7594C22.2403 48.953 18.7822 50.5737 16.9934 52.0726C15.9531 53.9316 15.3895 56.0193 15.3528 58.1493" fill="#007AFF"/>
</svg>
