<svg width="118" height="118" viewBox="0 0 118 118" fill="none" xmlns="http://www.w3.org/2000/svg">
<rect width="118" height="118" rx="59" fill="white"/>
<g clip-path="url(#clip0_46_3674)">
<path d="M73.5569 47.8116L65.6474 60.5147H73.3965L80.1863 47.4749L65.8532 24.583H39.3326L36.2891 29.8524H62.994L73.5569 47.8116Z" fill="#2A72E5"/>
<path d="M41.6898 51.4829L56.9208 51.6593L53.8319 45.8047L39.1353 45.8661L25.6572 69.0065L39.333 92.7001H45.7461L31.8325 69.8349L41.6898 51.4829Z" fill="#2A72E5"/>
<path d="M76.5389 65.712H61.0835L64.0656 71.4089H78.7621L92.3498 48.3006L78.6766 24.583H71.9964L86.1585 47.2317L76.5389 65.712Z" fill="#2A72E5"/>
<path d="M56.961 40.5969L63.831 53.5913L67.4704 47.7474L60.0152 35.0576H33.2942L19.6665 58.6443L22.6486 63.8094L36.1266 40.6717L56.961 40.5969Z" fill="#2A72E5"/>
<path d="M44.3886 69.4582L52.2633 56.8138L44.7814 56.7256L37.834 69.6799L51.8465 92.7081H78.6664L81.7206 87.4173H54.9515L44.3886 69.4582Z" fill="#2A72E5"/>
<path d="M95.3591 53.4922L81.7581 76.6246H60.9157L54.1259 63.6569L50.4678 69.5355L57.9229 82.2093H84.7348L98.3385 58.644L95.3591 53.4922Z" fill="#2A72E5"/>
</g>
<defs>
<clipPath id="clip0_46_3674">
<rect width="78.6667" height="68.1279" fill="white" transform="translate(19.6665 24.583)"/>
</clipPath>
</defs>
</svg>
