<svg width="118" height="118" viewBox="0 0 118 118" fill="none" xmlns="http://www.w3.org/2000/svg">
<path d="M59 118C91.696 118 118 91.696 118 59C118 26.304 91.696 0 59 0C26.304 0 0 26.304 0 59C0 91.696 26.304 118 59 118Z" fill="#2775CA"/>
<path d="M75.2252 68.3412C75.2252 59.7372 70.0627 56.7872 59.7377 55.5583C52.3627 54.5747 50.8877 52.6083 50.8877 49.1662C50.8877 45.7242 53.3462 43.5122 58.2627 43.5122C62.6877 43.5122 65.1462 44.9872 66.3752 48.6747C66.6212 49.4122 67.3587 49.9037 68.0962 49.9037H72.0291C73.0127 49.9037 73.7502 49.1662 73.7502 48.1833V47.9372C72.7666 42.5287 68.3416 38.3497 62.6877 37.8583V31.9583C62.6877 30.9747 61.9502 30.2372 60.7212 29.9912H57.0337C56.0502 29.9912 55.3127 30.7287 55.0666 31.9583V37.6122C47.6916 38.5958 43.0212 43.5122 43.0212 49.6583C43.0212 57.7708 47.9377 60.9662 58.2627 62.1958C65.1462 63.4247 67.3587 64.8997 67.3587 68.8333C67.3587 72.7668 63.9166 75.4708 59.2462 75.4708C52.8541 75.4708 50.6416 72.7662 49.9041 69.0787C49.6587 68.0958 48.9212 67.6037 48.1837 67.6037H44.0041C43.0212 67.6037 42.2837 68.3412 42.2837 69.3247V69.5708C43.2666 75.7162 47.2002 80.1412 55.3127 81.3708V87.2708C55.3127 88.2537 56.0502 88.9912 57.2791 89.2372H60.9666C61.9502 89.2372 62.6877 88.4997 62.9337 87.2708V81.3708C70.3087 80.1412 75.2252 74.9787 75.2252 68.3412Z" fill="white"/>
<path d="M46.4624 94.1544C27.2874 87.2715 17.4539 65.884 24.5834 46.9544C28.2709 36.6294 36.3834 28.763 46.4624 25.0755C47.4459 24.584 47.9374 23.8465 47.9374 22.6169V19.1755C47.9374 18.1919 47.4459 17.4544 46.4624 17.209C46.2164 17.209 45.7249 17.209 45.4789 17.4544C22.1249 24.8294 9.34138 49.659 16.7164 73.0129C21.1414 86.7794 31.7124 97.3504 45.4789 101.775C46.4624 102.267 47.4459 101.775 47.6914 100.792C47.9374 100.546 47.9374 100.3 47.9374 99.809V96.3669C47.9374 95.6294 47.1999 94.6465 46.4624 94.1544ZM72.5209 17.4544C71.5374 16.963 70.5539 17.4544 70.3084 18.438C70.0624 18.684 70.0624 18.9294 70.0624 19.4215V22.863C70.0624 23.8465 70.7999 24.8294 71.5374 25.3215C90.7124 32.2044 100.546 53.5919 93.4164 72.5215C89.7289 82.8465 81.6164 90.7129 71.5374 94.4004C70.5539 94.8919 70.0624 95.6294 70.0624 96.859V100.3C70.0624 101.284 70.5539 102.021 71.5374 102.267C71.7834 102.267 72.2749 102.267 72.5209 102.021C95.8749 94.6465 108.658 69.8169 101.283 46.463C96.8584 32.4505 86.0414 21.8794 72.5209 17.4544Z" fill="white"/>
</svg>
