<svg width="118" height="118" viewBox="0 0 118 118" fill="none" xmlns="http://www.w3.org/2000/svg">
<rect width="118" height="118" rx="59" fill="#007AFF"/>
<path d="M16.1126 50.2949C15.8394 51.1567 15.5031 52.3183 15.2852 53.2C15.4365 52.5891 15.7175 52.0181 16.1092 51.5256C16.5009 51.0331 16.9941 50.6307 17.5552 50.3458C18.6658 48.9318 20.0846 47.7899 21.7034 47.0074C23.3222 46.2248 25.0983 45.8222 26.8964 45.8301V45.7969C20.187 43.8831 18.105 46.0746 17.5231 47.1045C16.9723 48.1298 16.5015 49.1961 16.1148 50.2939" fill="white"/>
<path d="M23.0673 40.058L22.0806 40.9983C23.2156 40.0735 25.0874 40.2881 27.9691 41.6765C28.5946 40.564 29.3875 39.5543 30.3199 38.6829C28.9537 37.694 27.5687 36.8322 26.6892 37.2371C25.4142 38.0871 24.2033 39.0296 23.0662 40.0569" fill="white"/>
<path d="M36.8555 32.3478C35.8311 32.7217 34.4671 33.2206 33.4526 33.6321C33.9835 34.1912 34.4606 34.799 34.8775 35.4475C36.4068 34.6256 37.9971 33.9229 39.6344 33.3456C39.3589 32.2084 39.2914 31.6409 39.6421 31.4971C38.8047 31.7504 37.6829 32.0634 36.8533 32.3511" fill="white"/>
<path d="M53.4925 29.2401C51.9338 29.3662 49.8573 29.5587 48.3031 29.7401C47.4911 29.9404 47.1327 30.228 46.73 31.4438C48.8495 31.0441 50.9892 30.7605 53.1396 30.5942C53.4583 30.1505 53.8762 29.7874 54.36 29.5337C54.8438 29.2801 55.3801 29.1428 55.9263 29.1328L53.4925 29.2434" fill="white"/>
<path d="M70.8073 30.1679C69.3492 29.9467 67.4044 29.6723 65.9397 29.5042C64.4768 29.3314 62.9998 29.6796 61.7681 30.4876C64.0019 30.6022 66.2282 30.8345 68.4376 31.1834C70.0889 30.4771 71.923 30.3178 73.6713 30.7288C72.8118 30.5595 71.6712 30.3117 70.8073 30.1757" fill="white"/>
<path d="M86.4289 35.0734C85.347 34.5756 83.9033 33.9229 82.8059 33.4704C80.6439 32.5811 78.2585 32.3877 75.9814 32.9173C77.7626 33.4637 79.5052 34.129 81.1974 34.9085C84.181 34.5475 87.1964 35.2477 89.7155 36.8865C88.7354 36.3256 87.4312 35.5668 86.4234 35.0734" fill="white"/>
<path d="M101.933 51.1964C101.202 49.1214 100.195 47.1542 98.9396 45.3476L98.1652 44.2912C94.6872 40.0609 91.1815 38.1869 86.439 38.0254C87.5522 38.8658 88.5556 39.8425 89.4258 40.9326C97.3078 42.0389 102.733 48.9197 103.246 58.46C103.181 55.9861 102.737 53.5367 101.929 51.1975" fill="white"/>
<path d="M90.6676 80.4263C92.1738 79.4575 93.6016 78.3719 94.9377 77.1794C95.4411 76.6938 96.1159 76.0522 96.5971 75.5433C106.428 64.233 101.961 47.9114 91.4055 44.9521C91.5186 45.4665 91.5798 45.9909 91.588 46.5175V46.7985C91.5773 47.3174 91.5154 47.8339 91.4033 48.3406C102.696 53.4006 101.586 73.5941 89.6045 81.0778L90.6643 80.4274" fill="white"/>
<path d="M75.9021 86.3739C77.3723 85.9967 79.3248 85.4557 80.7829 85.0132C95.2371 79.6192 97.5425 57.5937 89.4293 52.2959C88.5578 53.3582 87.554 54.3047 86.4424 55.1124C93.3012 62.6272 86.2721 83.8572 73.3887 86.906L75.8999 86.375" fill="white"/>
<path d="M59.081 88.1319C60.4439 88.1197 62.2626 88.1009 63.6255 88.0478C75.6316 86.8166 84.1763 64.9272 81.2027 58.0762C79.5086 58.8093 77.7658 59.4244 75.9867 59.917C75.9591 68.6729 64.0879 88.237 55.5742 88.0157C56.6263 88.0534 58.029 88.1263 59.0799 88.1263" fill="white"/>
<path d="M41.6677 85.8758C43.0085 86.1966 44.8017 86.607 46.1503 86.8803C51.1594 87.2464 63.7739 70.3617 68.4323 61.4365C66.2136 61.721 63.9814 61.8883 61.745 61.9377C58.1088 65.4423 48.5132 76.4649 46.6271 78.642C41.7706 84.2397 39.9652 85.3016 39.3081 85.2065L41.6677 85.8769" fill="white"/>
<path d="M27.0332 79.5538C28.4869 80.5218 30.0019 81.3942 31.5688 82.1656L31.6972 82.2287C31.966 80.8049 43.9046 66.6449 53.1219 61.5783C50.9727 61.349 48.8375 61.0037 46.7256 60.5439C35.714 64.7344 24.4733 77.5559 26.4082 79.129L27.0277 79.5538" fill="white"/>
<path d="M19.0685 71.8936C19.5896 72.5894 20.2931 73.5142 20.8474 74.1747C18.3672 70.4223 28.8245 60.705 39.6448 58.4394C38.0053 57.8128 36.4151 57.064 34.8879 56.1992C24.9316 57.2734 15.4544 64.2748 17.4036 69.1246C17.8815 69.9742 18.5209 71.1048 19.0718 71.8903" fill="white"/>
<path d="M14.7524 58.1503V58.6238C14.7956 59.4458 14.863 60.5398 14.9549 61.3552C14.6872 56.0252 22.838 52.5815 30.3218 52.826C29.3884 51.9273 28.5953 50.8936 27.9688 49.7594C21.6422 48.953 18.184 50.5737 16.3952 52.0726C15.355 53.9316 14.7914 56.0193 14.7546 58.1493" fill="white"/>
</svg>
