<svg width="18" height="13" viewBox="0 0 18 13" fill="none" xmlns="http://www.w3.org/2000/svg">
<path fill-rule="evenodd" clip-rule="evenodd" d="M0.700196 6.29597C0.700197 6.73756 0.868159 7.15682 1.15949 7.44241L5.87726 12.0673C6.42491 12.6042 7.24531 12.5261 7.70968 11.8929C8.17404 11.2598 8.10652 10.3113 7.55887 9.77441L5.54384 7.79906L16.0013 7.79905C16.7194 7.79905 17.3014 7.1261 17.3014 6.29597C17.3014 5.46583 16.7194 4.79288 16.0013 4.79288L5.54384 4.79288L7.55887 2.81752C8.10652 2.28065 8.17404 1.33216 7.70967 0.698997C7.24531 0.0658383 6.42491 -0.0122199 5.87725 0.524649L1.15948 5.14953C0.868158 5.43512 0.700196 5.85438 0.700196 6.29597Z" fill="white"/>
</svg>
