<svg width="18" height="13" viewBox="0 0 18 13" fill="none" xmlns="http://www.w3.org/2000/svg">
<path fill-rule="evenodd" clip-rule="evenodd" d="M17.3755 6.29597C17.3755 6.73756 17.2075 7.15682 16.9162 7.44241L12.1984 12.0673C11.6508 12.6042 10.8304 12.5261 10.366 11.8929C9.90164 11.2598 9.96916 10.3113 10.5168 9.77441L12.5318 7.79906L2.07435 7.79906C1.35632 7.79905 0.774249 7.1261 0.774249 6.29597C0.774249 5.46584 1.35632 4.79288 2.07435 4.79288L12.5318 4.79288L10.5168 2.81752C9.96916 2.28065 9.90164 1.33216 10.366 0.698998C10.8304 0.0658388 11.6508 -0.0122195 12.1984 0.52465L16.9162 5.14953C17.2075 5.43512 17.3755 5.85438 17.3755 6.29597Z" fill="white"/>
</svg>
